PathFileType	4	(X/Y/Z)	C:\Users\°ÂÌØÂü\Desktop\20201223\Trimmed_bx_n_5_901.trc
DataRate	CameraRate	NumFrames	NumMarkers	Units	OrigDataRate	OrigDataStartFrame	OrigNumFrames
50.00	50.00	       5	43	mm	50.00	151	       402
Frame#	Time	Top.Head			R.Acromium			L.Acromium			Sternum			R.ASIS			L.ASIS			V.Sacral			R.Thigh.Upper			R.Thigh.Front			R.Thigh.Rear			R.Knee.Lat			R.Knee.Med			R.Shank.Upper			R.Shank.Front			R.Shank.Rear			R.Ankle.Lat			R.Midfoot.Lat			R.Toe.Lat			R.Toe.Tip			R.Toe.Med			R.Ankle.Med			R.Midfoot.Sup			R.Heel			L.Thigh.Upper			L.Thigh.Front			L.Thigh.Rear			L.Knee.Lat			L.Knee.Med			L.Shank.Upper			L.Shank.Front			L.Shank.Rear			L.Ankle.Lat			L.Midfoot.Lat			L.Toe.Lat			L.Toe.Tip			L.Toe.Med			L.Ankle.Med			L.Midfoot.Sup			L.Heel			origin1 front left			origin2 front right			origin 3 back right			origin 4 back leftt			
		X1	Y1	Z1	X2	Y2	Z2	X3	Y3	Z3	X4	Y4	Z4	X5	Y5	Z5	X6	Y6	Z6	X7	Y7	Z7	X8	Y8	Z8	X9	Y9	Z9	X10	Y10	Z10	X11	Y11	Z11	X12	Y12	Z12	X13	Y13	Z13	X14	Y14	Z14	X15	Y15	Z15	X16	Y16	Z16	X17	Y17	Z17	X18	Y18	Z18	X19	Y19	Z19	X20	Y20	Z20	X21	Y21	Z21	X22	Y22	Z22	X23	Y23	Z23	X24	Y24	Z24	X25	Y25	Z25	X26	Y26	Z26	X27	Y27	Z27	X28	Y28	Z28	X29	Y29	Z29	X30	Y30	Z30	X31	Y31	Z31	X32	Y32	Z32	X33	Y33	Z33	X34	Y34	Z34	X35	Y35	Z35	X36	Y36	Z36	X37	Y37	Z37	X38	Y38	Z38	X39	Y39	Z39	X40	Y40	Z40	X41	Y41	Z41	X42	Y42	Z42	X43	Y43	Z43	

151	3.000	-534.36011	241.87306	1800.90002	-513.33496	63.39281	1500.02100	-500.73022	422.69888	1503.73071	-487.05710	241.19611	1309.83044	-590.97137	119.18818	1030.90771	-564.24579	345.91611	1035.32813	-777.96198	245.70297	1068.82825	-670.21826	74.27214	836.28204	-576.40900	130.40277	815.30920	-665.30176	85.76189	724.96857	-690.00195	110.46370	604.02533	-670.12317	219.06760	563.20227	-712.90564	108.57025	537.75110	-637.68146	163.84602	529.27264	-716.49506	99.94749	485.87189	-690.16766	137.12427	211.65323	-606.85156	85.37398	163.09657	-558.43982	68.62974	160.55827	-485.29742	119.28344	157.91736	-534.03674	166.89438	164.79913	-650.43640	218.29451	222.82626	-602.88190	197.57574	172.72002	-730.21198	199.38733	170.01123	-660.98535	428.63293	859.71393	-574.46161	383.82278	818.87347	-677.52142	419.03558	743.64178	-685.84131	403.68011	607.28528	-671.19696	292.84781	568.32605	-698.90985	406.82819	560.31506	-638.50562	351.93481	538.61200	-747.95374	410.22958	493.07175	-681.19946	406.44135	214.84988	-581.81525	451.67654	162.01701	-544.27618	462.63434	156.86749	-482.09235	407.94598	165.66798	-526.13849	370.54956	177.08888	-649.57550	313.92264	212.13940	-597.72052	332.43817	172.10445	-735.42621	337.37631	161.31541	-443.98294	448.21240	146.44031	-450.42105	74.75582	143.34061	-806.21460	81.98956	141.09105	-799.09100	457.33994	145.20218	
152	3.020	-545.64294	241.27682	1804.60449	-520.76740	63.26326	1503.87402	-507.82797	423.07129	1507.49719	-488.74673	241.24147	1314.03308	-587.40277	119.03721	1031.73267	-560.53601	345.72638	1036.04614	-774.51514	245.72687	1067.97522	-666.63239	74.12576	836.46960	-572.75336	129.81882	815.16064	-662.30963	85.80711	725.20789	-687.70697	110.47182	604.26172	-667.57947	219.03304	563.40594	-710.95337	108.69978	538.03046	-635.58307	163.67099	529.13818	-714.85406	100.04522	486.16943	-690.11304	137.15593	211.64659	-606.94781	85.27982	163.01636	-558.44794	68.55650	160.54214	-485.30176	119.24844	157.95676	-534.01392	166.78783	164.91568	-650.17120	218.30591	222.78763	-602.94470	197.49316	172.66029	-730.19379	199.49564	170.06238	-657.03479	428.33456	859.67743	-570.75909	383.53519	818.78448	-674.22968	418.81131	743.83215	-683.43311	403.47186	607.51520	-668.57190	292.63293	568.70886	-696.73132	406.51288	560.51709	-636.33887	351.74075	538.49872	-746.10272	409.81763	493.57895	-681.03815	406.27957	214.89778	-581.82965	451.68066	162.03925	-544.29315	462.63940	156.86899	-482.05695	408.07385	165.70570	-526.12024	370.56345	177.09949	-649.62988	314.06390	211.52988	-597.77826	332.52231	171.98613	-735.34644	337.31171	161.27380	-443.94403	448.21436	146.45206	-450.41937	74.75512	143.34477	-806.21106	81.99252	141.09886	-799.06836	457.35144	145.20741	
153	3.040	-556.68970	240.78078	1807.91284	-528.09119	63.21568	1507.38989	-514.88605	423.43570	1510.95618	-490.42844	241.35362	1318.04285	-583.76312	118.87486	1032.49292	-556.87439	345.53580	1036.69348	-771.03723	245.66631	1067.09851	-662.95801	73.95020	836.63702	-569.02679	129.32387	815.02374	-659.24683	85.83733	725.43335	-685.38220	110.43742	604.48077	-665.05090	218.95039	563.59186	-708.99463	108.77812	538.29926	-633.49109	163.46260	528.99725	-713.21259	100.10945	486.44989	-690.05109	137.18307	211.64822	-607.05310	85.18481	162.94041	-558.45105	68.48597	160.52350	-485.30853	119.21783	157.99254	-533.99054	166.68970	165.02092	-649.90863	218.31592	222.76659	-602.99280	197.42931	172.61969	-730.17590	199.59579	170.11026	-653.16254	427.99414	859.61414	-567.11981	383.19803	818.65723	-670.97485	418.55573	743.99921	-681.04535	403.22653	607.72614	-665.92920	292.39374	568.92981	-694.57361	406.16376	560.69647	-634.18677	351.51379	538.36224	-744.28326	409.36383	494.07443	-680.92249	406.11099	214.96384	-581.85266	451.69611	162.06685	-544.31665	462.64767	156.86755	-482.03314	408.21051	165.73581	-526.09656	370.57623	177.11803	-649.64581	314.16080	210.99477	-597.81262	332.58307	171.90137	-735.25623	337.23972	161.23787	-443.90781	448.22696	146.46980	-450.41714	74.75534	143.34731	-806.20502	81.99355	141.10698	-799.06702	457.34012	145.20457	
154	3.060	-567.50598	240.38251	1810.83191	-535.28375	63.24569	1510.56067	-521.89600	423.78928	1514.13293	-492.09839	241.52875	1321.85876	-580.04840	118.69321	1033.18640	-553.26324	345.36530	1037.26733	-767.53589	245.51938	1066.19519	-659.19482	73.75574	836.77795	-565.23328	128.92368	814.90912	-656.11066	85.85468	725.64386	-683.02673	110.36496	604.68164	-662.53851	218.81676	563.75928	-707.03571	108.81403	538.55127	-631.41260	163.22406	528.84735	-711.58105	100.15519	486.71210	-689.98004	137.21643	211.65625	-607.16425	85.09200	162.87140	-558.44885	68.42120	160.50378	-485.31732	119.19100	158.02155	-533.97284	166.60086	165.11253	-649.64978	218.32729	222.75385	-603.02960	197.38246	172.59528	-730.15631	199.68808	170.15392	-649.35852	427.62732	859.53009	-563.53363	382.82233	818.49677	-667.75531	418.26453	744.14087	-678.66425	402.93781	607.91541	-663.26251	292.14279	569.01813	-692.42535	405.78534	560.85577	-632.04193	351.26404	538.21442	-742.48999	408.87189	494.55743	-680.84552	405.93323	215.04111	-581.88318	451.72424	162.10194	-544.34814	462.65817	156.86545	-482.01682	408.35110	165.76004	-526.06866	370.59015	177.14664	-649.60510	314.19104	210.57396	-597.80573	332.60056	171.86404	-735.16425	337.15573	161.20787	-443.87653	448.25107	146.49420	-450.41473	74.75612	143.34898	-806.19489	81.99150	141.11320	-799.09448	457.30164	145.19101	
155	3.080	-578.09351	240.07260	1813.37439	-542.32080	63.34499	1513.38733	-528.85046	424.13248	1517.05579	-493.75165	241.76007	1325.48132	-576.26172	118.48679	1033.81201	-549.70557	345.24118	1037.75696	-764.01678	245.28845	1065.26746	-655.34705	73.54939	836.88727	-561.38062	128.61594	814.82245	-652.89948	85.85844	725.83813	-680.63977	110.26020	604.86462	-660.04291	218.63460	563.91046	-705.08081	108.81882	538.78174	-629.35461	162.96323	528.68488	-709.96643	100.19553	486.95712	-689.90027	137.26337	211.66946	-607.27631	85.00485	162.81114	-558.44165	68.36420	160.48523	-485.32681	119.16763	158.04114	-533.96582	166.52116	165.18938	-649.39850	218.34152	222.73816	-603.05603	197.35094	172.58392	-730.13330	199.77382	170.19388	-645.60590	427.25485	859.43213	-559.98730	382.42047	818.31128	-664.56653	417.93924	744.25726	-676.27649	402.60333	608.08179	-660.56683	291.90317	569.01807	-690.27765	405.38330	560.99884	-629.89801	351.00095	538.06628	-740.71313	408.34995	495.02621	-680.79083	405.74454	215.12184	-581.91827	451.76328	162.14574	-544.38812	462.66989	156.86519	-482.00098	408.48944	165.78032	-526.03876	370.60751	177.18622	-649.50165	314.14429	210.28047	-597.75128	332.56891	171.87396	-735.08130	337.05417	161.18346	-443.85190	448.28488	146.52504	-450.41266	74.75736	143.35085	-806.17926	81.98564	141.11586	-799.15442	457.23578	145.16527	
